# xmcd
#
# Track frame offsets:
#   150
#   23042
#   36925
#   51212
#
# Disc length: 915 seconds
#
# Revision: 2
# Processed by: cddbd v1.5PL3 Copyright (c) Steve Scherf et al.
# Submitted via: Media_Universe 3.0
#
DISCID=2b039104
DTITLE=The Cranberries - Limited edition (special bonus CD containing LIVE tracks)
DYEAR=1999
DGENRE=Alternative
TTITLE0=Forever yellow Skies
TTITLE1=Free to decide
TTITLE2=Sunday
TTITLE3=Waltzing back
EXTD=
EXTT0=
EXTT1=
EXTT2=
EXTT3=
PLAYORDER=
